<?xml version="1.0" encoding="UTF-8"?>
<!DOCTYPE svg PUBLIC "-//W3C//DTD SVG 1.1//EN" "http://www.w3.org/Graphics/SVG/1.1/DTD/svg11.dtd">
<!-- Creator: CorelDRAW X8 -->
<svg xmlns="http://www.w3.org/2000/svg" xml:space="preserve" width="154.645mm" height="24.831mm" version="1.1" style="shape-rendering:geometricPrecision; text-rendering:geometricPrecision; image-rendering:optimizeQuality; fill-rule:evenodd; clip-rule:evenodd"
viewBox="0 0 13450 2160"
 xmlns:xlink="http://www.w3.org/1999/xlink">
 <defs>
  <style type="text/css">
   <![CDATA[
    .fil0 {fill:#0080C0;fill-rule:nonzero}
    .fil1 {fill:#40B040;fill-rule:nonzero}
   ]]>
  </style>
 </defs>
 <g id="Layer_x0020_1">
  <metadata id="CorelCorpID_0Corel-Layer"/>
  <polygon class="fil0" points="3762,460 3276,1585 2791,460 2519,460 3268,2156 3285,2156 4036,460 "/>
  <path id="1" class="fil0" d="M4962 1838l0 -524c0,-284 -198,-457 -484,-457 -194,0 -331,71 -453,146l80 197c106,-74 199,-115 328,-115 224,0 285,143 285,233l0 3c-461,42 -768,137 -768,445 0,242 193,383 427,383 97,0 251,-25 374,-124 29,74 83,97 170,97l127 0 0 -220c-55,0 -86,-3 -86,-64zm-557 81c-126,0 -211,-51 -211,-155 0,-110 92,-175 524,-233l0 233 0 42c-102,79 -205,113 -313,113z"/>
  <path id="2" class="fil0" d="M7663 1838l0 -524c0,-284 -198,-457 -484,-457 -194,0 -330,71 -452,146l79 197c107,-74 199,-115 329,-115 224,0 285,143 285,233l0 3c-462,42 -768,137 -768,445 0,242 193,383 426,383 97,0 252,-25 374,-124 29,74 84,97 171,97l126 0 0 -220c-54,0 -86,-3 -86,-64zm-556 81c-127,0 -212,-51 -212,-155 0,-110 93,-175 525,-233l0 233 0 42c-102,79 -206,113 -313,113z"/>
  <path id="3" class="fil0" d="M5484 1079l-14 -194 -228 0 0 1237 243 0 0 -533c0,-388 207,-481 382,-483 12,0 25,0 36,1l39 -271c-160,1 -340,65 -458,243z"/>
  <path id="4" class="fil0" d="M6286 709c80,0 144,-66 144,-147 0,-82 -64,-148 -144,-148 -80,0 -145,66 -145,148 0,81 65,147 145,147zm-124 1413l243 0 0 -1237 -243 0 0 1237z"/>
  <path id="5" class="fil0" d="M8558 855c-158,0 -288,63 -376,176l-11 -146 -228 0 0 1237 244 0 0 -669c0,-239 114,-358 293,-358 175,0 279,96 279,359l0 668 243 0 0 -668c0,-469 -205,-599 -444,-599z"/>
  <polygon id="6" class="fil0" points="10042,1862 10042,460 9786,460 9786,2122 10769,2122 10769,1862 "/>
  <path id="7" class="fil0" d="M11112 709c80,0 145,-66 145,-147 0,-82 -65,-148 -145,-148 -80,0 -144,66 -144,148 0,81 64,147 144,147zm-123 1413l243 0 0 -1237 -243 0 0 1237z"/>
  <path id="8" class="fil0" d="M11920 2142c72,0 165,-15 227,-35l0 -231c-52,15 -109,29 -148,29 -100,0 -144,-69 -144,-182l0 -596 290 0 0 -242 -290 0 0 -240 -228 0 0 106c0,97 -48,151 -137,151l-40 0 -1 225 162 0 0 596c0,272 109,419 309,419z"/>
  <path id="9" class="fil0" d="M13450 1454c0,-316 -220,-607 -569,-607 -340,0 -613,278 -613,657 0,377 273,656 618,656 153,0 346,-58 478,-206l-164 -166c-97,93 -216,129 -309,129 -183,0 -334,-127 -375,-313l906 0 0 -1 4 1c15,-43 24,-90 24,-150zm-568 -365c193,0 306,141 331,320l-700 0c36,-190 185,-320 369,-320z"/>
  <path class="fil1" d="M1765 1252c140,0 254,-160 254,-357l-564 0 -155 357 465 0z"/>
  <path class="fil1" d="M705 816l156 -356 -861 0c0,197 114,357 254,357l451 -1z"/>
  <path class="fil1" d="M677 991c-12,-29 -15,-64 -10,-96l-476 0c0,197 114,357 254,357l477 0 10 -191 -170 0c-36,0 -68,-27 -85,-70z"/>
  <path class="fil1" d="M1266 1330l-156 357 465 0c140,0 254,-160 254,-357l-563 0z"/>
  <path class="fil1" d="M808 1765c0,197 113,357 253,357l81 0c141,0 254,-160 254,-357l-588 0z"/>
  <path class="fil1" d="M1381 2122c140,0 254,-160 254,-357l-1066 0c0,197 113,357 254,357l558 0z"/>
  <path class="fil1" d="M899 1687c0,-4 19,-357 19,-357l-537 0c0,197 114,357 254,357l264 0z"/>
  <polygon class="fil0" points="1540,0 1165,0 762,925 1037,925 996,1687 1538,460 1320,460 "/>
  <path class="fil1" d="M1644 460l-155 357 467 0c140,0 253,-160 253,-357l-565 0z"/>
 </g>
</svg>
